<?xml version="1.0" encoding="UTF-8" standalone="no"?>
<!-- Generator: Adobe Illustrator 18.0.0, SVG Export Plug-In . SVG Version: 6.00 Build 0)  -->

<svg
   xmlns:dc="http://purl.org/dc/elements/1.1/"
   xmlns:cc="http://creativecommons.org/ns#"
   xmlns:rdf="http://www.w3.org/1999/02/22-rdf-syntax-ns#"
   xmlns:svg="http://www.w3.org/2000/svg"
   xmlns="http://www.w3.org/2000/svg"
   xmlns:sodipodi="http://sodipodi.sourceforge.net/DTD/sodipodi-0.dtd"
   xmlns:inkscape="http://www.inkscape.org/namespaces/inkscape"
   version="1.1"
   id="Layer_1"
   x="0px"
   y="0px"
   viewBox="0 0 792 612"
   enable-background="new 0 0 792 612"
   xml:space="preserve"
   inkscape:version="0.48.2 r9819"
   width="100%"
   height="100%"
   sodipodi:docname="icon1.svg"><metadata
   id="metadata17"><rdf:RDF><cc:Work
       rdf:about=""><dc:format>image/svg+xml</dc:format><dc:type
         rdf:resource="http://purl.org/dc/dcmitype/StillImage" /><dc:title></dc:title></cc:Work></rdf:RDF></metadata><defs
   id="defs15">
	
</defs><sodipodi:namedview
   pagecolor="#ffffff"
   bordercolor="#666666"
   borderopacity="1"
   objecttolerance="10"
   gridtolerance="10"
   guidetolerance="10"
   inkscape:pageopacity="0"
   inkscape:pageshadow="2"
   inkscape:window-width="1440"
   inkscape:window-height="776"
   id="namedview13"
   showgrid="false"
   inkscape:zoom="1"
   inkscape:cx="512.9113"
   inkscape:cy="270.80394"
   inkscape:window-x="0"
   inkscape:window-y="0"
   inkscape:window-maximized="1"
   inkscape:current-layer="Layer_1" />







<path
   d="m 457.5,145.8125 0,57.6875 c -41.4567,0.0507 -75,33.62511 -75,75.09375 l 75.09375,0.84375 0,74.25 c 41.5,0 75.09375,-33.59375 75.09375,-75.09375 l 57.625,0 L 546.1875,234.5 590.40625,190.5 545.6875,145.8125 501.59375,189.90625 457.5,145.8125 z M 324.8125,278.59375 368.90625,322.6875 324.8125,366.8125 369.5,411.5 413.59375,367.40625 457.6875,411.5 l 0,-57.6875 c -19.2,0 -38.39375,-7.3 -53.09375,-22 -14.7,-14.7 -22,-33.925 -22,-53.125 l -57.78125,-0.0937 z"
   style="fill:#000000;fill-opacity:1"
   id="path3781"
   inkscape:connector-curvature="0" /></svg>